<svg xmlns="http://www.w3.org/2000/svg" viewBox="0 0 102.7 85.9"><path d="M4.6 76.1c-.3-.2-.5-.5-.5-.8-.4-2.5-.4-5.1 0-7.6.9-6.1 3.7-27 6.1-32.7.2-.4 0-.3 0-.3s-1-.3-1.7-.6-.1 0-1.1-.4L1 31.4c-.8-.3-1.2-1.2-.9-2 .2-.4.5-.8.9-.9L50.8 8.7c.4-.1.8-.1 1.1 0l49.8 19.9c.8.3 1.2 1.2.9 2-.2.4-.5.8-1 .9C90.1 35.3 58 46 52.1 47.8c-.5.1-31-9.2-34.6-10.3-.3 0-1-.4-2.5-1.1-3.1 9.2-.2 33.8-1.4 37.1-.1.3-.1.6 0 .9.3 1.3 0 1.7-.6 2-2.6 1.3-5.8 1.2-8.3-.2ZM15 36.3Zm0 0Zm0-.1Zm0 0Zm0 0Zm0 0Zm0 0Zm0 0Zm0 0Zm0 0Zm30.7 34c-5.1-.3-10.1-1.5-14.8-3.4-2.8-1-5.3-2.7-7.3-5-1-1.2-1.6-2.8-1.6-4.4V42.5l3.5 1.1c8.5 2.6 16.9 5.2 25.4 7.8.4.1.8.1 1.1 0l19.9-6.1 8.4-2.6c.3 0 .5-.1.8-.2v14.6c0 3-1.5 5.1-3.7 6.8-3.7 2.8-7.9 4.2-12.4 5.1-4.4.9-8.9 1.4-13.4 1.4-1.9 0-3.9 0-5.8-.3Z"/></svg>