<svg xmlns="http://www.w3.org/2000/svg" fill="none" viewBox="0 0 32 32"><path fill="#EFEFEF" d="M0 0h32v32H0z" style="fill:#efefef;fill:color(display-p3 .9373 .9373 .9373);fill-opacity:1"/><g clip-path="url(#a)"><path fill="#005F46" d="M0 0h32v32H0z" style="fill:#005f46;fill:color(display-p3 0 .3712 .273);fill-opacity:1"/><g clip-path="url(#b)"><path fill="url(#c)" d="M0 0h32v32H0z"/><g opacity=".13" style="mix-blend-mode:multiply"><path fill="#3D00EC" fill-rule="evenodd" d="m30.018 29.93 2.026 2.026-.088.088-2.027-2.026V32h-.125v-2.07H21.93V32h-.125v-2.07h-5.741V32h-.125v-2.07h-5.742V32h-.125v-2.07H2.196V32H2.07v-1.982L.044 32.044l-.088-.088 2.026-2.027H0v-.125h2.07V21.93H0v-.125h2.07v-5.741H0v-.125h2.07v-5.742H0v-.125h2.07V2.196H0V2.07h1.982L-.044.044l.088-.088 2.027 2.026V0h.125v2.07h7.875V0h.125v2.07h5.742V0h.124v2.07h5.742V0h.125v2.07h7.875V0h.125v1.982l2.027-2.026.088.088-2.026 2.027H32v.125h-2.07v7.875H32v.125h-2.07v5.742H32v.124h-2.07v5.742H32v.125h-2.07v7.875H32v.125h-1.982Zm-.214-.214v-7.787h-1.196a13.961 13.961 0 0 1-2.715 3.876l3.911 3.91Zm-3.999-4a13.835 13.835 0 0 0 2.665-3.787h-6.246l-.102.105 3.683 3.683Zm-3.771-3.594 3.683 3.683a13.837 13.837 0 0 1-3.788 2.665v-6.246l.105-.102Zm0-.177.016-.016h-.032l.016.016Zm-.105.073.017.016-.017.016v-.032Zm-.125-.302v-4.5a5.916 5.916 0 0 1-1.567 2.932l1.567 1.568Zm-1.656-1.48 1.568 1.568h-4.5a5.917 5.917 0 0 0 2.932-1.567Zm0-.176a5.785 5.785 0 0 0 1.656-3.997H16.15l3.997 3.997Zm-4.085-3.91 3.997 3.998a5.785 5.785 0 0 1-3.997 1.656V16.15Zm-.125-.3v-5.654a5.785 5.785 0 0 0-3.998 1.656l3.998 3.997Zm-4.086-3.91 3.997 3.998h-5.653a5.785 5.785 0 0 1 1.656-3.998Zm0-.176a5.916 5.916 0 0 1 2.931-1.568h-4.499l1.568 1.568Zm-1.656-1.48 1.568 1.568a5.916 5.916 0 0 0-1.568 2.931v-4.499Zm-.125-.302V9.95l-.016.016.016.016Zm-.105.073.016.016H9.95l.016-.016Zm0-.177.105-.102V3.53a13.837 13.837 0 0 0-3.788 2.665l3.683 3.683ZM6.195 6.283l3.683 3.683-.102.105H3.531a13.838 13.838 0 0 1 2.664-3.788Zm0-.177a13.961 13.961 0 0 1 3.876-2.714V2.196H2.284l3.91 3.91Zm-4-3.822 3.912 3.91a13.962 13.962 0 0 0-2.715 3.877H2.196V2.284Zm23.61 23.61 3.91 3.91H21.93v-1.196a13.961 13.961 0 0 0 3.876-2.715Zm-15.734 3.91H2.284l3.91-3.91a13.962 13.962 0 0 0 3.877 2.714v1.196Zm-7.875-.088 3.91-3.91a13.96 13.96 0 0 1-2.714-3.877H2.196v7.787Zm7.875-1.247a13.835 13.835 0 0 1-3.788-2.664l3.683-3.683.105.102v6.245Zm-3.876-2.752 3.683-3.683a9.257 9.257 0 0 1-.102-.105H3.531a13.837 13.837 0 0 0 2.664 3.788Zm3.876-3.667-.016-.016.016-.016v.032Zm-.105-.105.016-.016H9.95l.016.016Zm4.817-.14h-4.499l1.568-1.569a5.916 5.916 0 0 0 2.931 1.568Zm-4.587-.09 1.568-1.567a5.916 5.916 0 0 1-1.568-2.931v4.499Zm5.742.089a5.785 5.785 0 0 1-3.998-1.656l3.998-3.997v5.653Zm-4.086-1.744 3.997-3.997h-5.653a5.784 5.784 0 0 0 1.656 3.997Zm9.952-4.122H16.15l3.997-3.998a5.785 5.785 0 0 1 1.656 3.998Zm-5.741-.089 3.997-3.997a5.785 5.785 0 0 0-3.997-1.656v5.653Zm5.741-1.066a5.916 5.916 0 0 0-1.567-2.931l1.567-1.568v4.5Zm-1.656-3.02 1.568-1.567h-4.5a5.917 5.917 0 0 1 2.932 1.568Zm1.902-1.692h-.032l.016-.016.016.016Zm-.12-.089.015-.016-.016-.016v.032Zm.294.089-.102-.105 3.683-3.683a13.836 13.836 0 0 1 2.665 3.788h-6.246Zm-.19-.193 3.683-3.683a13.839 13.839 0 0 0-3.788-2.665v6.246l.105.102Zm6.574.193a13.962 13.962 0 0 0-2.715-3.876l3.911-3.91v7.786h-1.196Zm-2.803-3.965 3.91-3.91H21.93v1.196a13.96 13.96 0 0 1 3.876 2.714ZM3.334 21.805H2.196v-3.93a13.832 13.832 0 0 0 1.138 3.93Zm6.326 0H3.472a13.75 13.75 0 0 1-1.276-5.741h5.208a8.565 8.565 0 0 0 2.256 5.741Zm.41 0h-.24a8.441 8.441 0 0 1-2.3-5.741h2.54v5.741Zm.126.125v.24a8.44 8.44 0 0 0 5.742 2.302v-2.542h-5.742Zm5.867 0v2.542a8.44 8.44 0 0 0 5.741-2.301v-.24h-5.741Zm6.107-.125h-.24v-5.741h2.54a8.44 8.44 0 0 1-2.3 5.741Zm6.358 0H22.34a8.564 8.564 0 0 0 2.256-5.741h5.208a13.75 13.75 0 0 1-1.276 5.741Zm1.276 0h-1.138a13.83 13.83 0 0 0 1.138-3.93v3.93ZM7.53 15.938h2.542v-5.742h-.24a8.441 8.441 0 0 0-2.302 5.742Zm14.4 0h2.542a8.44 8.44 0 0 0-2.301-5.742h-.24v5.742Zm2.667 0h5.208a13.75 13.75 0 0 0-1.276-5.742H22.34a8.564 8.564 0 0 1 2.256 5.742Zm-22.4 0h5.208a8.565 8.565 0 0 1 2.256-5.742H3.472a13.75 13.75 0 0 0-1.276 5.742Zm26.47-5.742h1.138v3.93a13.83 13.83 0 0 0-1.138-3.93Zm-6.862-.125v-.24a8.441 8.441 0 0 0-5.741-2.302v2.542h5.741Zm-5.866 0V7.529a8.44 8.44 0 0 0-5.742 2.301v.24h5.742Zm-13.742.125h1.138a13.832 13.832 0 0 0-1.138 3.93v-3.93Zm8-6.862V2.196h3.93a13.83 13.83 0 0 0-3.93 1.138Zm11.608 0a13.832 13.832 0 0 0-3.93-1.138h3.93v1.138Zm-11.608 26.47h3.93a13.832 13.832 0 0 1-3.93-1.138v1.138Zm7.678 0h3.93v-1.138a13.834 13.834 0 0 1-3.93 1.138Zm-7.678-1.276V22.34a8.564 8.564 0 0 0 5.742 2.256v5.208a13.75 13.75 0 0 1-5.742-1.276Zm0-25.056V9.66a8.564 8.564 0 0 1 5.742-2.256V2.196a13.75 13.75 0 0 0-5.742 1.276Zm5.867 26.332a13.75 13.75 0 0 0 5.741-1.276V22.34a8.564 8.564 0 0 1-5.741 2.256v5.208Zm0-22.4a8.564 8.564 0 0 1 5.741 2.256V3.472a13.75 13.75 0 0 0-5.741-1.276v5.208Z" clip-rule="evenodd" style="fill:#3d00ec;fill:color(display-p3 .2404 0 .9246);fill-opacity:1"/></g></g><g filter="url(#d)"><path fill="#0FB" fill-rule="evenodd" d="M16.312 18.188v2.187h.52v-2.224c.16-.015.322-.034.486-.056.508-.07 1-.186 1.473-.349a5.04 5.04 0 0 0 1.3-.644 3.06 3.06 0 0 0 .937-.992c.231-.395.347-.865.347-1.41 0-.337-.064-.656-.19-.958-.128-.313-.342-.632-.642-.957a8.357 8.357 0 0 0-1.162-1.08 21.341 21.341 0 0 0-1.786-1.27 42.124 42.124 0 0 1-2.271-1.62c-.555-.44-.954-.817-1.197-1.13-.23-.326-.346-.622-.346-.889 0-.255.069-.47.208-.644.15-.174.364-.307.641-.4a3.19 3.19 0 0 1 1.006-.14c.37 0 .722.117 1.058.349.335.232.681.61 1.04 1.131.358.523.751 1.225 1.179 2.107l.78 1.584h.347l.867-4.335c-.324-.209-.74-.394-1.248-.557a10.37 10.37 0 0 0-1.665-.383c-.372-.063-.76-.107-1.162-.132V3.75h-.52v1.604a13.465 13.465 0 0 0-.52 0V3.75h-.52v1.632a7.3 7.3 0 0 0-1.457.266 5.458 5.458 0 0 0-1.716.8 3.644 3.644 0 0 0-1.092 1.184c-.255.453-.382.94-.382 1.462 0 .441.127.882.382 1.323.265.441.705.935 1.317 1.48.613.546 1.44 1.195 2.48 1.95.682.476 1.22.894 1.612 1.253.393.36.67.69.832.993.174.29.26.586.26.887a.98.98 0 0 1-.138.523.932.932 0 0 1-.416.33c-.174.07-.388.105-.642.105-.347 0-.705-.081-1.075-.244-.358-.174-.71-.44-1.058-.8a7.701 7.701 0 0 1-1.023-1.376l-1.647-2.803h-.347l-.346 4.51c.439.196.942.37 1.508.521.567.14 1.156.25 1.769.331.403.053.796.09 1.179.108v2.19h.52v-2.176a8.045 8.045 0 0 0 .52-.01Zm-.062 9.437v-6.25h-.5v6.25h.5Z" clip-rule="evenodd" style="fill:#0fb;fill:color(display-p3 0 1 .7333);fill-opacity:1"/></g><g filter="url(#e)"><path fill="#28D6A8" fill-rule="evenodd" d="M26.625 21.375h3.25v.5h-1.25v2.75h-.5v-2.75h-1.5v2.75h-.5v-2.75h-1.5v2.75h-.5v-2.75h-1.5v2.75h-.5v-2.75h-1.5v2.75h-.5v-2.75h-1.5v2.75h-.5v-2.75H14.25v2.75h-.5v-2.75h-1.625v2.75h-.5v-2.75h-1.5v2.75h-.5v-2.75h-1.5v2.75h-.5v-2.75h-1.5v2.75h-.5v-2.75h-1.5v2.75h-.5v-2.75h-1.75v-.5h24.75Z" clip-rule="evenodd" style="fill:#28d6a8;fill:color(display-p3 .155 .84 .6573);fill-opacity:1"/></g></g><defs><clipPath id="a"><path fill="#fff" d="M0 0h32v32H0z" style="fill:#fff;fill-opacity:1"/></clipPath><clipPath id="b"><path fill="#fff" d="M0 0h32v32H0z" style="fill:#fff;fill-opacity:1"/></clipPath><filter id="d" width="58.75" height="71.875" x="-13.375" y="-12.25" color-interpolation-filters="sRGB" filterUnits="userSpaceOnUse"><feFlood flood-opacity="0" result="BackgroundImageFix"/><feColorMatrix in="SourceAlpha" result="hardAlpha" values="0 0 0 0 0 0 0 0 0 0 0 0 0 0 0 0 0 0 127 0"/><feOffset dy="8"/><feGaussianBlur stdDeviation="12"/><feComposite in2="hardAlpha" operator="out"/><feColorMatrix values="0 0 0 0 0 0 0 0 0 0 0 0 0 0 0 0 0 0 0.66 0"/><feBlend in2="BackgroundImageFix" result="effect1_dropShadow_0_1"/><feBlend in="SourceGraphic" in2="effect1_dropShadow_0_1" result="shape"/></filter><filter id="e" width="76" height="51.25" x="-22.125" y="5.375" color-interpolation-filters="sRGB" filterUnits="userSpaceOnUse"><feFlood flood-opacity="0" result="BackgroundImageFix"/><feColorMatrix in="SourceAlpha" result="hardAlpha" values="0 0 0 0 0 0 0 0 0 0 0 0 0 0 0 0 0 0 127 0"/><feOffset dy="8"/><feGaussianBlur stdDeviation="12"/><feComposite in2="hardAlpha" operator="out"/><feColorMatrix values="0 0 0 0 0 0 0 0 0 0 0 0 0 0 0 0 0 0 0.66 0"/><feBlend in2="BackgroundImageFix" result="effect1_dropShadow_0_1"/><feBlend in="SourceGraphic" in2="effect1_dropShadow_0_1" result="shape"/></filter><radialGradient id="c" cx="0" cy="0" r="1" gradientTransform="matrix(0 16 -16 0 16 16)" gradientUnits="userSpaceOnUse"><stop stop-color="#31816C" style="stop-color:#31816c;stop-color:color(display-p3 .1909 .5062 .4229);stop-opacity:1"/><stop offset="1" stop-color="#004F3A" style="stop-color:#004f3a;stop-color:color(display-p3 .0013 .3082 .2271);stop-opacity:1"/></radialGradient></defs></svg>