<svg xmlns="http://www.w3.org/2000/svg" viewBox="0 0 102.726 85.8525" x="0px" y="0px">
<path d="M4.533,67.547a1.072,1.072,0,0,1-.5-.772,26.2,26.2,0,0,1,0-7.585c.94-6.061,3.7-27.043,6.116-32.664.165-.38.077-.279.077-.279s-1.006-.344-1.708-.59-.107-.027-1.1-.4l-6.4-2.306a1.559,1.559,0,0,1,0-2.919L50.783.1a1.616,1.616,0,0,1,1.142,0L101.742,19.95a1.558,1.558,0,0,1-.085,2.928C90.17,26.719,58.042,37.339,52.107,39.141c-.459.14-30.954-9.172-34.637-10.341-.278-.086-1-.4-2.53-1.073-3.106,9.237-.192,33.791-1.4,37.106a1.555,1.555,0,0,0-.064.911c.3,1.309.075,1.684-.6,2a8.929,8.929,0,0,1-8.347-.193ZM14.947,27.706l0-.01Zm.007-.024h0Zm.008-.026,0-.006Zm.008-.026,0-.005Zm0-.009v0Zm0-.01.005-.017Zm.007-.022v0Zm0,0h0Zm0,0h0Zm0,0h0ZM45.6,61.6a48.41,48.41,0,0,1-14.8-3.368,17.932,17.932,0,0,1-7.29-4.988,6.8,6.8,0,0,1-1.622-4.367v-14.5a3.723,3.723,0,0,1,0-.439l3.469,1.073q12.712,3.9,25.414,7.82a2.125,2.125,0,0,0,1.142,0L71.78,36.716l8.368-2.585a6.6,6.6,0,0,1,.769-.161V48.528c0,3-1.526,5.084-3.747,6.769-3.672,2.789-7.942,4.162-12.361,5.149a63.325,63.325,0,0,1-13.373,1.428Q48.514,61.874,45.6,61.6Z"/><text x="0" y="83.682" fill="#000000" font-size="5px" font-weight="bold" font-family="'Helvetica Neue', Helvetica, Arial-Unicode, Arial, Sans-serif">Created by Imran shaikh</text><text x="0" y="88.682" fill="#000000" font-size="5px" font-weight="bold" font-family="'Helvetica Neue', Helvetica, Arial-Unicode, Arial, Sans-serif">from the Noun Project</text>
</svg>